<svg xmlns="http://www.w3.org/2000/svg" viewBox="0 0 286.65 207.43"><defs><style>.cls-1{fill:#00a3ff;}.cls-2{fill:#00c8dc;}.cls-3{fill:#006eff;}</style></defs><title>资源 1</title><g id="图层_2" data-name="图层 2"><g id="图层_1-2" data-name="图层 1"><path class="cls-1" d="M248.41,169.83c-5.11,5-14.21,10.79-29.16,11.3-6.91.23-15,.26-18.67.26h-80.3l57.59-55.94c2.65-2.57,8.61-8.27,13.75-12.9,11.28-10.15,21.43-12.2,28.61-12.13a40.46,40.46,0,0,1,28.18,69.41m19.23-75.5a66.15,66.15,0,0,0-47.31-20c-16.07,0-29.91,5.54-42,15.38-5.27,4.29-10.79,9.42-17.74,16.17-3.45,3.36-103.53,100.46-103.53,100.46a156.54,156.54,0,0,0,18.9,1c6,0,121,0,125.82,0,9.69,0,16,0,22.76-.5,15.53-1.13,30.21-6.83,42.07-18.48A66.49,66.49,0,0,0,267.64,94.33Z"/><path class="cls-2" d="M106.18,88.09C94.42,79.28,81.25,74.36,66.32,74.38A66.5,66.5,0,0,0,20,188.44a64.54,64.54,0,0,0,37.05,17.94l25.76-25c-4.16,0-10.14-.07-15.45-.25-14.94-.51-24-6.25-29.15-11.3a40.46,40.46,0,0,1,28.18-69.41c7,0,16.62,2,27.43,11,5.16,4.28,16.62,14.36,21.65,18.89a.62.62,0,0,0,.87,0L134.11,113a.64.64,0,0,0,0-1c-8.53-7.71-20.62-18.5-27.91-23.92"/><path class="cls-3" d="M227.3,59.36a89.08,89.08,0,0,0-172,16,65.32,65.32,0,0,1,11-.93,64.36,64.36,0,0,1,15,1.76,2.8,2.8,0,0,1,.28.06A63,63,0,0,1,200.56,62.78a.58.58,0,0,0,.7.38,76.32,76.32,0,0,1,25.14-2.62c.85.07,1.18-.41.9-1.18"/></g></g></svg>